<?xml version="1.0" encoding="utf-8"?>
<!-- Generator: Adobe Illustrator 25.0.0, SVG Export Plug-In . SVG Version: 6.00 Build 0)  -->
<svg version="1.1" id="图层_1" xmlns="http://www.w3.org/2000/svg" xmlns:xlink="http://www.w3.org/1999/xlink" x="0px" y="0px"
	 viewBox="0 0 3276.29 612.72" style="enable-background:new 0 0 3276.29 612.72;" xml:space="preserve">
<style type="text/css">
	.st0{fill:#19176C;}
	.st1{fill:url(#SVGID_1_);}
	.st2{fill:#D5A9F7;}
</style>
<g>
	<g>
		<g>
			<path class="st0" d="M872.62,405.9l-72.95-251.17h35.1h35.1l40.11,184.45h0.29l37.38-184.45h33.01h33.24l37.15,184.91h-0.01
				l40.79-184.91h33.29h33.52l-72.72,251.17h-33.7h-33.94L979.7,218.91h0.15l-39.6,186.99h-33.7H872.62z"/>
			<path class="st0" d="M1088.59,409.45h-73.19l-35.66-172.84l-36.6,172.84h-73.18l-75.01-258.26h77.77L910,322.63l34.74-171.43
				h72.06l34.4,171.24l37.78-171.24h74.38L1088.59,409.45z M1021.18,402.36h62.09l70.67-244.08h-59.24l-40.01,181.38l0.71,3.53
				h-8.74l0.79-3.6L1011,158.28h-60.45l-37.38,184.45h-6.05l-40.11-184.45h-62.61l70.89,244.08h62.1l38.77-183.08l-0.81-3.91h8.88
				l-0.83,3.93L1021.18,402.36z"/>
		</g>
	</g>
	<path class="st0" d="M2572.26,147.42L2521.7,324.6l-51.98-177.18h-80.83l95.02,263.7c-1.43,5.99-2.18,8.09-3.19,10.95
		c-0.34,0.97-0.71,2-1.14,3.28c-1.91,5.68-7.96,19.31-13.47,28.6c-4.96,8.36-16.21,21.87-37.92,24.56
		c-2.86,0.14-6.06,0.21-9.66,0.21h-15.4v69.74h15.4c17.75,0,31.9-1.46,44.22-4.68c27.22-6.23,37.73-19.68,43.05-26.49
		c0.66-0.85,1.23-1.58,1.7-2.11c0.97-1.11,5.74-8.87,5.79-8.94c19.96-33.11,28.67-50.9,44.21-97.61l91.69-261.2H2572.26z"/>
	<path class="st0" d="M1416.95,293.68c1.13-5.33,1.54-10.67,1.23-15.85c-0.02-43.43-10.77-77.47-31.95-101.17
		c-21.31-23.84-51.98-35.93-91.18-35.93c-38.25,0-68.64,11.84-90.32,35.18c-21.61,23.27-32.57,55.81-32.57,96.72
		c0,44.24,10.74,78.89,31.93,102.99c21.3,24.24,51.91,36.53,90.96,36.53c31.68,0,58.5-7.52,79.71-22.34
		c21.35-14.92,35.15-35.84,41.02-62.16l0.96-4.32h-74.71l-0.6,2.81c-1.51,7.13-6.04,13.13-13.85,18.33
		c-7.91,5.27-16.61,7.95-25.85,7.95c-20.27,0-34.85-5.74-43.31-17.02c-6.34-8.63-10.42-21.71-12.14-38.91h170.06L1416.95,293.68z
		 M1294.13,202.07c16.83,0,28.81,5.05,36.66,15.46c5.47,7.16,9.11,17.12,10.83,29.62h-94.18c2.39-10.96,5.96-20.03,10.61-27.01
		C1266.35,207.98,1278.15,202.07,1294.13,202.07z"/>
	<g>
		<polygon class="st0" points="2876.96,206.56 2876.96,147.42 2667.65,147.42 2667.65,206.92 2782.95,206.92 2658.18,349.32 
			2658.18,405.68 2882.73,405.68 2882.73,344.34 2755.79,344.34 		"/>
		<path class="st0" d="M3140.75,293.68c1.13-5.33,1.54-10.67,1.23-15.85c-0.02-43.43-10.77-77.47-31.95-101.17
			c-21.31-23.84-51.98-35.93-91.18-35.93c-38.25,0-68.64,11.84-90.32,35.18c-21.61,23.27-32.57,55.81-32.57,96.72
			c0,44.24,10.74,78.89,31.93,102.99c21.3,24.24,51.91,36.53,90.96,36.53c31.68,0,58.5-7.52,79.71-22.34
			c21.35-14.92,35.15-35.84,41.02-62.16l0.96-4.32h-74.71l-0.6,2.81c-1.51,7.13-6.04,13.13-13.85,18.33
			c-7.91,5.27-16.6,7.95-25.85,7.95c-20.27,0-34.85-5.74-43.31-17.02c-6.34-8.63-10.42-21.71-12.14-38.91h170.06L3140.75,293.68z
			 M3017.93,202.07c16.83,0,28.81,5.05,36.66,15.46c5.47,7.16,9.11,17.12,10.83,29.62h-94.18c2.39-10.96,5.96-20.03,10.61-27.01
			C2990.14,207.98,3001.95,202.07,3017.93,202.07z"/>
	</g>
	<path class="st0" d="M2244.02,399.28c-2.15-1.58-4.02-3.49-5.55-5.66c-4.28-6.06-4.96-8.92-5.91-12.88
		c-1.13-4.72-1.08-8.75-0.99-15.41c0.03-2.03,0.05-4.29,0.05-6.85V217.98c0-23.89-9.62-43-28.58-56.82
		c-18.62-13.56-44.22-20.44-76.08-20.44c-36.66,0-64.97,7.63-84.14,22.69c-19.38,15.22-29.93,38.31-31.36,68.65l-0.18,3.71h70.6
		l0.14-3.4c0.42-10.31,3.73-18.02,10.1-23.56c6.38-5.55,15.54-8.36,27.22-8.36c13.41,0,23.72,2.22,30.65,6.6
		c5.43,3.44,8.45,8.05,9.23,14.02c0.39,3.55-0.16,6.96-1.68,10.41c-1.43,3.23-3.32,5.37-5.82,6.56c-7.17,3.51-16.36,6.04-27.32,7.52
		l-43.66,6.01c-25.18,3.64-44.68,12.75-57.96,27.07c-13.34,14.39-20.11,33.72-20.11,57.47c0,22.62,7.52,41.16,22.36,55.1
		c14.77,13.89,34.46,20.93,58.53,20.93c31.3,0,57.59-10.88,78.24-32.35c0.15,1.13,0.33,2.1,0.61,3.24c1.02,4.28,3.13,8.26,6.1,11.51
		c1.55,1.7,3.5,3.16,5.77,4.33c6.63,3.41,13.76,5.43,21.2,6l10.39,0.79l46.85,0.01L2244.02,399.28z M2103.64,357.73
		c-8.76,0-15.32-2.43-20.05-7.43c-4.78-5.05-7.11-11.96-7.11-21.11c0-7.84,2.59-14.14,7.92-19.26c5.46-5.25,13.71-8.94,24.52-10.96
		l24.53-4.63c10.24-2.12,19.03-4.84,26.21-8.11v23.1c0,5.02-0.8,10.27-2.39,15.61c-1.55,5.2-3.41,9.12-5.54,11.65
		C2139.7,350.81,2123.97,357.73,2103.64,357.73z"/>
	<path class="st0" d="M1694.71,399.28c-2.15-1.58-4.02-3.49-5.55-5.66c-4.28-6.06-4.96-8.92-5.91-12.88
		c-1.13-4.72-1.08-8.75-0.99-15.41c0.03-2.03,0.05-4.29,0.05-6.85V217.98c0-23.89-9.62-43-28.58-56.82
		c-18.62-13.56-44.22-20.44-76.08-20.44c-36.66,0-64.97,7.63-84.14,22.69c-19.38,15.22-29.93,38.31-31.36,68.65l-0.18,3.71h70.6
		l0.14-3.4c0.42-10.31,3.73-18.02,10.1-23.56c6.38-5.55,15.54-8.36,27.22-8.36c13.41,0,23.72,2.22,30.65,6.6
		c5.43,3.44,8.45,8.05,9.23,14.02c0.39,3.55-0.16,6.96-1.68,10.41c-1.43,3.23-3.32,5.37-5.82,6.56c-7.17,3.51-16.36,6.04-27.32,7.52
		l-43.66,6.01c-25.18,3.64-44.68,12.75-57.96,27.07c-13.34,14.39-20.11,33.72-20.11,57.47c0,22.62,7.52,41.16,22.36,55.1
		c14.77,13.89,34.46,20.93,58.53,20.93c31.3,0,57.59-10.88,78.24-32.35c0.15,1.13,0.33,2.1,0.61,3.24c1.02,4.28,3.13,8.26,6.1,11.51
		c1.55,1.7,3.5,3.16,5.77,4.33c6.63,3.41,13.76,5.43,21.2,6l10.39,0.79l46.85,0.01L1694.71,399.28z M1554.33,357.73
		c-8.76,0-15.32-2.43-20.05-7.43c-4.78-5.05-7.11-11.96-7.11-21.11c0-7.84,2.59-14.14,7.92-19.26c5.46-5.25,13.71-8.94,24.52-10.96
		l24.53-4.63c10.24-2.12,19.03-4.84,26.21-8.11v23.1c0,5.02-0.8,10.27-2.39,15.61c-1.55,5.2-3.41,9.12-5.54,11.65
		C1590.38,350.81,1574.66,357.73,1554.33,357.73z"/>
	<g>
		<path class="st0" d="M1879.6,140.73c-32.09,0-56.95,10.94-73.91,32.55c-0.74,0.96-1.47,1.94-2.19,2.93v-28.78h-70.11v258.26h73.35
			V260.39c0-18.71,4.4-33.14,13.07-42.89c8.69-9.76,20.92-14.51,37.4-14.51c12.74,0,22.22,3.37,28.18,10.02
			c6.06,6.76,9.14,17.58,9.14,32.15v160.53h73.35V233.15c0-28.67-7.9-51.47-23.49-67.78
			C1928.75,149.02,1906.95,140.73,1879.6,140.73z"/>
		<rect x="2286.97" y="59.24" class="st0" width="73.35" height="346.44"/>
	</g>
</g>
<linearGradient id="SVGID_1_" gradientUnits="userSpaceOnUse" x1="101.276" y1="271.1608" x2="634.3463" y2="271.1608">
	<stop  offset="0" style="stop-color:#D5A9F7"/>
	<stop  offset="0.0699" style="stop-color:#CFA2F7"/>
	<stop  offset="0.1747" style="stop-color:#BD8DF7"/>
	<stop  offset="0.3015" style="stop-color:#A06BF6"/>
	<stop  offset="0.4443" style="stop-color:#793DF6"/>
	<stop  offset="0.5453" style="stop-color:#5918F5"/>
	<stop  offset="0.6072" style="stop-color:#5418EB"/>
	<stop  offset="0.7118" style="stop-color:#4818D1"/>
	<stop  offset="0.8464" style="stop-color:#3417A6"/>
	<stop  offset="1" style="stop-color:#19176C"/>
</linearGradient>
<path class="st1" d="M616.18,326.62c-15.06-14.11-50.43-56.34-79.69-117.51c18.64-17.96,35.51-26.37,52.77-26.37h11.32v-59h-11.32
	c-29.06,0-56.35,10.9-82.92,33.19c-10.35-12.85-21.96-23.33-34.68-31.27c-17.66-11.02-37.35-16.84-56.95-16.84
	s-39.28,5.83-56.93,16.84c-11.27,7.03-21.67,16.06-31.08,26.96c-9.06-11.04-20.83-21.63-39.39-30.73
	c-40.92-20.05-80.52-17.22-124.64,8.92c-19.66,11.65-36.65,28-49.12,47.29l-12.27,18.98l15.12,16.79
	c0.51,0.56,48.22,53.93,85.7,129.74c-13.65,12.63-30.3,19.92-47.36,20.23c-0.49,0.01-0.97,0.02-1.45,0.02h-11.32v59h11.32
	c0.84,0,1.69-0.01,2.54-0.03c27.3-0.5,53.63-10.17,75.85-27.1c8.96,9.44,19.68,18.02,33.31,24.7c17.86,8.75,35.46,13.14,53.3,13.14
	c23.01,0,46.43-7.32,71.26-22.02c8.23-4.86,15.97-10.56,23.12-16.94c8.95,9.61,20.06,18.79,34.4,25.82
	c17.86,8.75,35.46,13.14,53.3,13.14c23.04,0,46.48-7.33,71.34-22.06c19.67-11.65,36.65-28,49.13-47.3l13.51-20.75L616.18,326.62z
	 M240.01,288.98c-23.46-42.08-47.93-75.42-63.5-95.07c4.93-4.72,10.39-8.88,16.23-12.34c30.92-18.31,49.78-15.92,68.6-6.7
	c14.76,7.23,20.12,14.58,30.23,30.18l0.4,0.73L240.01,288.98z M359.5,360.78c-30.88,18.28-49.74,15.89-68.54,6.67
	c-7.95-3.9-14.16-9.25-20.14-16.41l55.24-88.46l51.95,83.62C372.5,351.86,366.26,356.78,359.5,360.78z M412.36,280.12
	c-16.04-27.44-35.11-58.91-47.97-79.97c14.57-20.89,32.32-32.33,50.33-32.33c18.7,0,37.13,12.35,52,34.8L412.36,280.12z
	 M541.64,360.75c-30.91,18.31-49.78,15.92-68.6,6.7c-12.47-6.11-20.44-15.67-29.47-29.09l53.65-76.48
	c22.04,40.42,44.39,69.69,59.64,87.48C552.2,353.69,547.09,357.52,541.64,360.75z"/>
<path class="st2" d="M466.72,202.62l-54.36,77.5c-16.04-27.44-35.11-58.91-47.97-79.97c14.57-20.89,32.32-32.33,50.33-32.33
	C433.42,167.82,451.85,180.17,466.72,202.62z"/>
</svg>
